<mxfile host="app.diagrams.net" modified="2023-11-27T08:59:57.603Z" agent="Mozilla/5.0 (Windows NT 10.0; Win64; x64) AppleWebKit/537.36 (KHTML, like Gecko) Chrome/119.0.0.0 Safari/537.36" etag="15kcBo34RBq4IwqBWe2D" version="22.1.4" type="device">
  <diagram name="Page-1" id="A0fWbD1eGlyktYqLW1zP">
    <mxGraphModel dx="1846" dy="1405" grid="0" gridSize="10" guides="1" tooltips="1" connect="1" arrows="1" fold="1" page="0" pageScale="1" pageWidth="850" pageHeight="1100" math="0" shadow="0">
      <root>
        <mxCell id="0" />
        <mxCell id="1" parent="0" />
        <mxCell id="Z_WiBrURXGG0sbefgKkN-1" value="" style="rounded=0;whiteSpace=wrap;html=1;fontSize=16;" parent="1" vertex="1">
          <mxGeometry x="39" y="-45" width="466" height="1139" as="geometry" />
        </mxCell>
        <mxCell id="Z_WiBrURXGG0sbefgKkN-2" value="&lt;font style=&quot;font-size: 36px;&quot;&gt;AgroMart&lt;/font&gt;" style="text;html=1;align=center;verticalAlign=middle;resizable=0;points=[];autosize=1;strokeColor=none;fillColor=none;fontSize=16;" parent="1" vertex="1">
          <mxGeometry x="191.5" y="-43" width="166" height="55" as="geometry" />
        </mxCell>
        <mxCell id="Z_WiBrURXGG0sbefgKkN-3" value="Registration" style="ellipse;whiteSpace=wrap;html=1;fontSize=16;" parent="1" vertex="1">
          <mxGeometry x="212" y="25" width="109" height="58" as="geometry" />
        </mxCell>
        <mxCell id="Z_WiBrURXGG0sbefgKkN-5" value="Payment" style="ellipse;whiteSpace=wrap;html=1;fontSize=16;" parent="1" vertex="1">
          <mxGeometry x="127" y="610" width="87" height="58" as="geometry" />
        </mxCell>
        <mxCell id="Z_WiBrURXGG0sbefgKkN-6" value="Admin Dashboard" style="ellipse;whiteSpace=wrap;html=1;fontSize=16;" parent="1" vertex="1">
          <mxGeometry x="236" y="641" width="110" height="63" as="geometry" />
        </mxCell>
        <mxCell id="Z_WiBrURXGG0sbefgKkN-7" value="User Management" style="ellipse;whiteSpace=wrap;html=1;fontSize=16;" parent="1" vertex="1">
          <mxGeometry x="191.75" y="893" width="117.5" height="68" as="geometry" />
        </mxCell>
        <mxCell id="Z_WiBrURXGG0sbefgKkN-9" value="Product" style="ellipse;whiteSpace=wrap;html=1;fontSize=16;" parent="1" vertex="1">
          <mxGeometry x="73" y="120.5" width="87" height="58" as="geometry" />
        </mxCell>
        <mxCell id="Z_WiBrURXGG0sbefgKkN-10" value="Rating &amp;amp; Review" style="ellipse;whiteSpace=wrap;html=1;fontSize=16;" parent="1" vertex="1">
          <mxGeometry x="224" y="348" width="102" height="59" as="geometry" />
        </mxCell>
        <mxCell id="Z_WiBrURXGG0sbefgKkN-11" value="Seasonal Products" style="ellipse;whiteSpace=wrap;html=1;fontSize=16;" parent="1" vertex="1">
          <mxGeometry x="152" y="194" width="100" height="61" as="geometry" />
        </mxCell>
        <mxCell id="Z_WiBrURXGG0sbefgKkN-12" value="Search &amp;amp; Filter" style="ellipse;whiteSpace=wrap;html=1;fontSize=16;" parent="1" vertex="1">
          <mxGeometry x="244.5" y="255" width="97.5" height="65" as="geometry" />
        </mxCell>
        <mxCell id="Z_WiBrURXGG0sbefgKkN-15" value="Product&lt;br&gt;Description" style="ellipse;whiteSpace=wrap;html=1;fontSize=16;" parent="1" vertex="1">
          <mxGeometry x="219.5" y="122.5" width="110" height="68" as="geometry" />
        </mxCell>
        <mxCell id="Z_WiBrURXGG0sbefgKkN-17" value="Add to Cart" style="ellipse;whiteSpace=wrap;html=1;fontSize=16;" parent="1" vertex="1">
          <mxGeometry x="132" y="433" width="109" height="63" as="geometry" />
        </mxCell>
        <mxCell id="Z_WiBrURXGG0sbefgKkN-20" value="Ordered Product" style="ellipse;whiteSpace=wrap;html=1;fontSize=16;" parent="1" vertex="1">
          <mxGeometry x="338" y="398" width="100.5" height="67" as="geometry" />
        </mxCell>
        <mxCell id="Z_WiBrURXGG0sbefgKkN-22" value="Checkout" style="ellipse;whiteSpace=wrap;html=1;fontSize=16;" parent="1" vertex="1">
          <mxGeometry x="73" y="543" width="87" height="58" as="geometry" />
        </mxCell>
        <mxCell id="Z_WiBrURXGG0sbefgKkN-23" value="Similar&lt;br&gt;Product&lt;br&gt;Recommendation" style="ellipse;whiteSpace=wrap;html=1;fontSize=16;" parent="1" vertex="1">
          <mxGeometry x="49" y="275" width="177" height="84" as="geometry" />
        </mxCell>
        <mxCell id="Z_WiBrURXGG0sbefgKkN-24" value="Product&lt;br&gt;Status" style="ellipse;whiteSpace=wrap;html=1;fontSize=16;" parent="1" vertex="1">
          <mxGeometry x="371" y="202" width="99" height="64" as="geometry" />
        </mxCell>
        <mxCell id="Z_WiBrURXGG0sbefgKkN-27" value="Delete" style="ellipse;whiteSpace=wrap;html=1;fontSize=16;" parent="1" vertex="1">
          <mxGeometry x="207" y="543" width="87" height="58" as="geometry" />
        </mxCell>
        <mxCell id="Z_WiBrURXGG0sbefgKkN-28" value="Profile&lt;br&gt;Management" style="ellipse;whiteSpace=wrap;html=1;fontSize=16;" parent="1" vertex="1">
          <mxGeometry x="342" y="89" width="113" height="80" as="geometry" />
        </mxCell>
        <mxCell id="Z_WiBrURXGG0sbefgKkN-29" value="Customer" style="shape=umlActor;verticalLabelPosition=bottom;verticalAlign=top;html=1;outlineConnect=0;fontSize=16;" parent="1" vertex="1">
          <mxGeometry x="-154" y="178.5" width="47" height="73" as="geometry" />
        </mxCell>
        <mxCell id="Z_WiBrURXGG0sbefgKkN-30" value="" style="endArrow=none;html=1;rounded=0;fontSize=12;startSize=8;endSize=8;curved=1;exitX=1;exitY=0.3333333333333333;exitDx=0;exitDy=0;exitPerimeter=0;entryX=0;entryY=0.5;entryDx=0;entryDy=0;" parent="1" source="Z_WiBrURXGG0sbefgKkN-29" target="Z_WiBrURXGG0sbefgKkN-3" edge="1">
          <mxGeometry width="50" height="50" relative="1" as="geometry">
            <mxPoint x="-79" y="105" as="sourcePoint" />
            <mxPoint x="-29" y="55" as="targetPoint" />
          </mxGeometry>
        </mxCell>
        <mxCell id="Z_WiBrURXGG0sbefgKkN-32" value="Admin" style="shape=umlActor;verticalLabelPosition=bottom;verticalAlign=top;html=1;outlineConnect=0;fontSize=16;" parent="1" vertex="1">
          <mxGeometry x="675" y="339" width="50" height="86" as="geometry" />
        </mxCell>
        <mxCell id="Z_WiBrURXGG0sbefgKkN-33" value="" style="endArrow=none;html=1;rounded=0;fontSize=12;startSize=8;endSize=8;exitX=1;exitY=0.5;exitDx=0;exitDy=0;entryX=0;entryY=0.3333333333333333;entryDx=0;entryDy=0;entryPerimeter=0;" parent="1" source="Z_WiBrURXGG0sbefgKkN-3" target="Z_WiBrURXGG0sbefgKkN-32" edge="1">
          <mxGeometry width="50" height="50" relative="1" as="geometry">
            <mxPoint x="485" y="165" as="sourcePoint" />
            <mxPoint x="535" y="115" as="targetPoint" />
            <Array as="points">
              <mxPoint x="590" y="83" />
            </Array>
          </mxGeometry>
        </mxCell>
        <mxCell id="Z_WiBrURXGG0sbefgKkN-34" value="Include" style="endArrow=block;endSize=16;endFill=0;html=1;rounded=0;fontSize=12;curved=1;entryX=0.633;entryY=0.983;entryDx=0;entryDy=0;entryPerimeter=0;exitX=0.438;exitY=0.006;exitDx=0;exitDy=0;exitPerimeter=0;" parent="1" source="Z_WiBrURXGG0sbefgKkN-28" target="Z_WiBrURXGG0sbefgKkN-3" edge="1">
          <mxGeometry width="160" relative="1" as="geometry">
            <mxPoint x="121" y="220" as="sourcePoint" />
            <mxPoint x="281" y="220" as="targetPoint" />
          </mxGeometry>
        </mxCell>
        <mxCell id="Z_WiBrURXGG0sbefgKkN-35" value="" style="endArrow=none;html=1;rounded=0;fontSize=12;startSize=8;endSize=8;entryX=0;entryY=0.5;entryDx=0;entryDy=0;" parent="1" target="Z_WiBrURXGG0sbefgKkN-10" edge="1">
          <mxGeometry width="50" height="50" relative="1" as="geometry">
            <mxPoint x="-105" y="202" as="sourcePoint" />
            <mxPoint x="41" y="247" as="targetPoint" />
            <Array as="points">
              <mxPoint x="12" y="373" />
            </Array>
          </mxGeometry>
        </mxCell>
        <mxCell id="Z_WiBrURXGG0sbefgKkN-36" value="" style="endArrow=none;html=1;rounded=0;fontSize=12;startSize=8;endSize=8;curved=1;entryX=0;entryY=0.5;entryDx=0;entryDy=0;" parent="1" target="Z_WiBrURXGG0sbefgKkN-9" edge="1">
          <mxGeometry width="50" height="50" relative="1" as="geometry">
            <mxPoint x="-106" y="202" as="sourcePoint" />
            <mxPoint x="61" y="148" as="targetPoint" />
          </mxGeometry>
        </mxCell>
        <mxCell id="Z_WiBrURXGG0sbefgKkN-38" value="Include" style="endArrow=block;endSize=16;endFill=0;html=1;rounded=0;fontSize=12;curved=1;entryX=0.633;entryY=0.983;entryDx=0;entryDy=0;entryPerimeter=0;exitX=0.079;exitY=0.8;exitDx=0;exitDy=0;exitPerimeter=0;" parent="1" source="Z_WiBrURXGG0sbefgKkN-15" edge="1">
          <mxGeometry width="160" relative="1" as="geometry">
            <mxPoint x="203.5" y="208" as="sourcePoint" />
            <mxPoint x="145.5" y="171" as="targetPoint" />
          </mxGeometry>
        </mxCell>
        <mxCell id="Z_WiBrURXGG0sbefgKkN-39" value="Extends" style="endArrow=block;endSize=16;endFill=0;html=1;rounded=0;fontSize=12;curved=1;entryX=0;entryY=0;entryDx=0;entryDy=0;exitX=1;exitY=0.5;exitDx=0;exitDy=0;" parent="1" source="Z_WiBrURXGG0sbefgKkN-15" target="Z_WiBrURXGG0sbefgKkN-24" edge="1">
          <mxGeometry width="160" relative="1" as="geometry">
            <mxPoint x="207" y="321" as="sourcePoint" />
            <mxPoint x="367" y="321" as="targetPoint" />
          </mxGeometry>
        </mxCell>
        <mxCell id="Z_WiBrURXGG0sbefgKkN-40" value="" style="endArrow=none;html=1;rounded=0;fontSize=12;startSize=8;endSize=8;curved=1;exitX=1;exitY=0.3333333333333333;exitDx=0;exitDy=0;exitPerimeter=0;entryX=0.269;entryY=0.067;entryDx=0;entryDy=0;entryPerimeter=0;" parent="1" source="Z_WiBrURXGG0sbefgKkN-29" target="Z_WiBrURXGG0sbefgKkN-23" edge="1">
          <mxGeometry width="50" height="50" relative="1" as="geometry">
            <mxPoint x="29" y="267" as="sourcePoint" />
            <mxPoint x="79" y="217" as="targetPoint" />
          </mxGeometry>
        </mxCell>
        <mxCell id="Z_WiBrURXGG0sbefgKkN-41" value="" style="endArrow=none;html=1;rounded=0;fontSize=12;startSize=8;endSize=8;curved=1;exitX=1;exitY=0.3333333333333333;exitDx=0;exitDy=0;exitPerimeter=0;entryX=0;entryY=0.5;entryDx=0;entryDy=0;" parent="1" source="Z_WiBrURXGG0sbefgKkN-29" target="Z_WiBrURXGG0sbefgKkN-12" edge="1">
          <mxGeometry width="50" height="50" relative="1" as="geometry">
            <mxPoint x="36" y="280" as="sourcePoint" />
            <mxPoint x="86" y="230" as="targetPoint" />
          </mxGeometry>
        </mxCell>
        <mxCell id="Z_WiBrURXGG0sbefgKkN-42" value="" style="endArrow=none;html=1;rounded=0;fontSize=12;startSize=8;endSize=8;curved=1;entryX=0;entryY=0.5;entryDx=0;entryDy=0;" parent="1" target="Z_WiBrURXGG0sbefgKkN-11" edge="1">
          <mxGeometry width="50" height="50" relative="1" as="geometry">
            <mxPoint x="-106" y="202" as="sourcePoint" />
            <mxPoint x="359" y="342" as="targetPoint" />
          </mxGeometry>
        </mxCell>
        <mxCell id="Z_WiBrURXGG0sbefgKkN-43" value="" style="endArrow=classic;html=1;rounded=0;fontSize=12;startSize=8;endSize=8;entryX=0.333;entryY=0.971;entryDx=0;entryDy=0;entryPerimeter=0;exitX=0.5;exitY=0;exitDx=0;exitDy=0;" parent="1" source="Z_WiBrURXGG0sbefgKkN-22" target="Z_WiBrURXGG0sbefgKkN-17" edge="1">
          <mxGeometry width="50" height="50" relative="1" as="geometry">
            <mxPoint x="113" y="566" as="sourcePoint" />
            <mxPoint x="161" y="538" as="targetPoint" />
            <Array as="points">
              <mxPoint x="116" y="525" />
              <mxPoint x="167" y="524" />
            </Array>
          </mxGeometry>
        </mxCell>
        <mxCell id="Z_WiBrURXGG0sbefgKkN-44" value="" style="endArrow=classic;html=1;rounded=0;fontSize=12;startSize=8;endSize=8;entryX=0.624;entryY=0.984;entryDx=0;entryDy=0;entryPerimeter=0;" parent="1" target="Z_WiBrURXGG0sbefgKkN-17" edge="1">
          <mxGeometry width="50" height="50" relative="1" as="geometry">
            <mxPoint x="251" y="542" as="sourcePoint" />
            <mxPoint x="279" y="534" as="targetPoint" />
            <Array as="points">
              <mxPoint x="251" y="525" />
              <mxPoint x="199" y="525" />
            </Array>
          </mxGeometry>
        </mxCell>
        <mxCell id="Z_WiBrURXGG0sbefgKkN-45" value="" style="endArrow=none;html=1;rounded=0;fontSize=12;startSize=8;endSize=8;entryX=0;entryY=0.5;entryDx=0;entryDy=0;" parent="1" target="Z_WiBrURXGG0sbefgKkN-17" edge="1">
          <mxGeometry width="50" height="50" relative="1" as="geometry">
            <mxPoint x="-105" y="202" as="sourcePoint" />
            <mxPoint x="-42" y="371" as="targetPoint" />
            <Array as="points">
              <mxPoint x="-7" y="439" />
            </Array>
          </mxGeometry>
        </mxCell>
        <mxCell id="Z_WiBrURXGG0sbefgKkN-47" value="" style="endArrow=none;html=1;rounded=0;fontSize=12;startSize=8;endSize=8;entryX=0;entryY=0.5;entryDx=0;entryDy=0;" parent="1" target="Z_WiBrURXGG0sbefgKkN-20" edge="1">
          <mxGeometry width="50" height="50" relative="1" as="geometry">
            <mxPoint x="-106" y="203" as="sourcePoint" />
            <mxPoint x="340" y="429" as="targetPoint" />
            <Array as="points">
              <mxPoint x="-9" y="405" />
            </Array>
          </mxGeometry>
        </mxCell>
        <mxCell id="Z_WiBrURXGG0sbefgKkN-48" value="" style="endArrow=none;html=1;rounded=0;fontSize=12;startSize=8;endSize=8;entryX=0;entryY=0.5;entryDx=0;entryDy=0;" parent="1" target="Z_WiBrURXGG0sbefgKkN-5" edge="1">
          <mxGeometry width="50" height="50" relative="1" as="geometry">
            <mxPoint x="-106" y="202" as="sourcePoint" />
            <mxPoint x="141" y="480" as="targetPoint" />
            <Array as="points">
              <mxPoint x="-16" y="626" />
            </Array>
          </mxGeometry>
        </mxCell>
        <mxCell id="Z_WiBrURXGG0sbefgKkN-49" value="Total Product" style="ellipse;whiteSpace=wrap;html=1;fontSize=16;" parent="1" vertex="1">
          <mxGeometry x="116" y="747" width="91" height="59" as="geometry" />
        </mxCell>
        <mxCell id="Z_WiBrURXGG0sbefgKkN-50" value="Total Order" style="ellipse;whiteSpace=wrap;html=1;fontSize=16;" parent="1" vertex="1">
          <mxGeometry x="385" y="747" width="92" height="63" as="geometry" />
        </mxCell>
        <mxCell id="Z_WiBrURXGG0sbefgKkN-51" value="Total Users" style="ellipse;whiteSpace=wrap;html=1;fontSize=16;" parent="1" vertex="1">
          <mxGeometry x="240.5" y="747" width="101" height="60" as="geometry" />
        </mxCell>
        <mxCell id="Z_WiBrURXGG0sbefgKkN-52" value="Product Management" style="ellipse;whiteSpace=wrap;html=1;fontSize=16;" parent="1" vertex="1">
          <mxGeometry x="64" y="863" width="119" height="78" as="geometry" />
        </mxCell>
        <mxCell id="Z_WiBrURXGG0sbefgKkN-54" value="" style="endArrow=classic;html=1;rounded=0;fontSize=12;startSize=8;endSize=8;curved=1;exitX=0.5;exitY=0;exitDx=0;exitDy=0;entryX=0.5;entryY=1;entryDx=0;entryDy=0;" parent="1" source="Z_WiBrURXGG0sbefgKkN-51" target="Z_WiBrURXGG0sbefgKkN-6" edge="1">
          <mxGeometry width="50" height="50" relative="1" as="geometry">
            <mxPoint x="319" y="661" as="sourcePoint" />
            <mxPoint x="369" y="611" as="targetPoint" />
          </mxGeometry>
        </mxCell>
        <mxCell id="Z_WiBrURXGG0sbefgKkN-55" value="" style="endArrow=classic;html=1;rounded=0;fontSize=12;startSize=8;endSize=8;entryX=1;entryY=1;entryDx=0;entryDy=0;exitX=0.331;exitY=0.039;exitDx=0;exitDy=0;exitPerimeter=0;" parent="1" source="Z_WiBrURXGG0sbefgKkN-50" target="Z_WiBrURXGG0sbefgKkN-6" edge="1">
          <mxGeometry width="50" height="50" relative="1" as="geometry">
            <mxPoint x="428" y="622" as="sourcePoint" />
            <mxPoint x="353" y="609" as="targetPoint" />
            <Array as="points">
              <mxPoint x="420" y="695" />
            </Array>
          </mxGeometry>
        </mxCell>
        <mxCell id="Z_WiBrURXGG0sbefgKkN-57" value="Order &amp;amp; Transaction Management" style="ellipse;whiteSpace=wrap;html=1;fontSize=16;" parent="1" vertex="1">
          <mxGeometry x="346" y="875" width="138" height="86" as="geometry" />
        </mxCell>
        <mxCell id="Z_WiBrURXGG0sbefgKkN-58" value="Check Product Reviews" style="ellipse;whiteSpace=wrap;html=1;fontSize=16;" parent="1" vertex="1">
          <mxGeometry x="236" y="999" width="130" height="69" as="geometry" />
        </mxCell>
        <mxCell id="Z_WiBrURXGG0sbefgKkN-59" value="" style="endArrow=classic;html=1;rounded=0;fontSize=12;startSize=8;endSize=8;exitX=0.5;exitY=0;exitDx=0;exitDy=0;entryX=0;entryY=1;entryDx=0;entryDy=0;" parent="1" source="Z_WiBrURXGG0sbefgKkN-49" target="Z_WiBrURXGG0sbefgKkN-6" edge="1">
          <mxGeometry width="50" height="50" relative="1" as="geometry">
            <mxPoint x="137" y="747" as="sourcePoint" />
            <mxPoint x="187" y="697" as="targetPoint" />
            <Array as="points">
              <mxPoint x="163" y="695" />
            </Array>
          </mxGeometry>
        </mxCell>
        <mxCell id="Z_WiBrURXGG0sbefgKkN-60" value="" style="endArrow=none;html=1;rounded=0;fontSize=12;startSize=8;endSize=8;curved=1;exitX=1;exitY=0;exitDx=0;exitDy=0;" parent="1" source="Z_WiBrURXGG0sbefgKkN-6" edge="1">
          <mxGeometry width="50" height="50" relative="1" as="geometry">
            <mxPoint x="583" y="698" as="sourcePoint" />
            <mxPoint x="678" y="367" as="targetPoint" />
          </mxGeometry>
        </mxCell>
        <mxCell id="eOtjuB_D7Upinscs8LW0-1" value="Include" style="endArrow=block;endSize=16;endFill=0;html=1;rounded=0;fontSize=12;curved=1;entryX=0.5;entryY=0;entryDx=0;entryDy=0;exitX=0.5;exitY=1;exitDx=0;exitDy=0;" edge="1" parent="1" source="Z_WiBrURXGG0sbefgKkN-49" target="Z_WiBrURXGG0sbefgKkN-52">
          <mxGeometry x="0.0056" width="160" relative="1" as="geometry">
            <mxPoint x="185" y="812" as="sourcePoint" />
            <mxPoint x="241" y="866" as="targetPoint" />
            <mxPoint as="offset" />
          </mxGeometry>
        </mxCell>
        <mxCell id="eOtjuB_D7Upinscs8LW0-3" value="Include" style="endArrow=block;endSize=16;endFill=0;html=1;rounded=0;fontSize=12;curved=1;entryX=0.58;entryY=0.01;entryDx=0;entryDy=0;exitX=0.5;exitY=1;exitDx=0;exitDy=0;entryPerimeter=0;" edge="1" parent="1" source="Z_WiBrURXGG0sbefgKkN-51" target="Z_WiBrURXGG0sbefgKkN-7">
          <mxGeometry x="0.0056" width="160" relative="1" as="geometry">
            <mxPoint x="182.99780487804878" y="1037.5000000000002" as="sourcePoint" />
            <mxPoint x="270.51" y="816.5" as="targetPoint" />
            <mxPoint as="offset" />
          </mxGeometry>
        </mxCell>
        <mxCell id="eOtjuB_D7Upinscs8LW0-4" value="Include" style="endArrow=block;endSize=16;endFill=0;html=1;rounded=0;fontSize=12;curved=1;entryX=0.5;entryY=0;entryDx=0;entryDy=0;exitX=0.5;exitY=1;exitDx=0;exitDy=0;" edge="1" parent="1" source="Z_WiBrURXGG0sbefgKkN-50" target="Z_WiBrURXGG0sbefgKkN-57">
          <mxGeometry x="0.0056" width="160" relative="1" as="geometry">
            <mxPoint x="301" y="817" as="sourcePoint" />
            <mxPoint x="270" y="904" as="targetPoint" />
            <mxPoint as="offset" />
          </mxGeometry>
        </mxCell>
        <mxCell id="eOtjuB_D7Upinscs8LW0-5" value="" style="endArrow=none;html=1;rounded=0;fontSize=12;startSize=8;endSize=8;exitX=1;exitY=0.5;exitDx=0;exitDy=0;" edge="1" parent="1" source="Z_WiBrURXGG0sbefgKkN-58">
          <mxGeometry width="50" height="50" relative="1" as="geometry">
            <mxPoint x="340" y="660" as="sourcePoint" />
            <mxPoint x="676" y="368" as="targetPoint" />
            <Array as="points">
              <mxPoint x="597" y="940" />
            </Array>
          </mxGeometry>
        </mxCell>
      </root>
    </mxGraphModel>
  </diagram>
</mxfile>
